<?xml version="1.0" encoding="UTF-8" standalone="no"?>
<!-- Created with Inkscape (http://www.inkscape.org/) -->

<svg
   xmlns:dc="http://purl.org/dc/elements/1.1/"
   xmlns:cc="http://creativecommons.org/ns#"
   xmlns:rdf="http://www.w3.org/1999/02/22-rdf-syntax-ns#"
   xmlns:svg="http://www.w3.org/2000/svg"
   xmlns="http://www.w3.org/2000/svg"
   xmlns:sodipodi="http://sodipodi.sourceforge.net/DTD/sodipodi-0.dtd"
   xmlns:inkscape="http://www.inkscape.org/namespaces/inkscape"
   width="2048"
   height="1152"
   viewBox="0 0 541.86667 304.8"
   version="1.1"
   id="svg8"
   inkscape:version="0.92.3 (2405546, 2018-03-11)"
   sodipodi:docname="banner.svg"
   inkscape:export-filename="/home/redhog/Desktop/banner.svg.png"
   inkscape:export-xdpi="96"
   inkscape:export-ydpi="96">
  <defs
     id="defs2" />
  <sodipodi:namedview
     id="base"
     pagecolor="#ffffff"
     bordercolor="#666666"
     borderopacity="1.0"
     inkscape:pageopacity="0.0"
     inkscape:pageshadow="2"
     inkscape:zoom="0.213582"
     inkscape:cx="1160.903"
     inkscape:cy="75.848577"
     inkscape:document-units="mm"
     inkscape:current-layer="layer1"
     showgrid="false"
     fit-margin-top="-0.4"
     fit-margin-left="0"
     fit-margin-right="0"
     fit-margin-bottom="0"
     inkscape:window-width="1920"
     inkscape:window-height="1019"
     inkscape:window-x="0"
     inkscape:window-y="29"
     inkscape:window-maximized="1"
     units="px" />
  <metadata
     id="metadata5">
    <rdf:RDF>
      <cc:Work
         rdf:about="">
        <dc:format>image/svg+xml</dc:format>
        <dc:type
           rdf:resource="http://purl.org/dc/dcmitype/StillImage" />
        <dc:title></dc:title>
      </cc:Work>
    </rdf:RDF>
  </metadata>
  <g
     inkscape:label="Layer 1"
     inkscape:groupmode="layer"
     id="layer1"
     transform="translate(429.81369,183.0144)">
    <path
       style="fill:#000000;stroke-width:0.36124286"
       d="m 80.263331,7.2849113 c -0.89408,-0.18832 -3.82015,-0.42855 -6.50237,-0.53383 -6.83273,-0.26822 -12.64772,-0.90854 -18.78462,-2.0685 -1.68882,-0.31921 -4.69617,-0.83919 -6.68301,-1.15554 -3.64418,-0.58024 -5.30135,-1.33358 -4.01734,-1.8263 0.34452,-0.13217 5.20952,-0.11524 10.8111,0.0379 20.74223,0.56675 40.24451,0.25881 46.128319,-0.72838 1.68881,-0.28335004 4.81807,-0.57551004 6.95392,-0.64927004 l 3.88336,-0.13407 v 3.19191004 3.19191 h -1.92046 c -1.05628,0 -2.8038,0.15006 -3.88337,0.33349 -2.80469,0.47651 -24.020049,0.75464 -25.985529,0.34068 z m -499.779461,-0.67824 c -3.37762,-0.14089 -7.07584,-0.3789 -8.21828,-0.52892 l -2.07714,-0.27274 v -3.41731 -3.41731 l 3.34149,0.23931996 c 1.83783,0.13162 3.91046,0.3876 4.60585,0.56881 0.69539,0.18123 3.13378,0.42002 5.41864,0.53065 2.28486,0.11059 5.53605,0.45704 7.22486,0.76981004 2.66365,0.49331 6.38462,0.54695 28.07829,0.40474 13.75425,-0.0902 25.21468,-0.027 25.46763,0.14033 0.72682,0.48086 -0.71595,1.3735 -2.22817,1.37855 -0.70709,0.002 -2.17969,0.24426 -3.27245,0.53757 -1.09276,0.29331 -2.72949,0.53522 -3.63717,0.53757 -0.90769,0.002 -2.452,0.24017 -3.43181,0.52844 -1.78335,0.5247 -5.53189,1.00701 -12.98,1.6701 -5.05401,0.44994 -30.22045,0.66708 -38.29174,0.33039 z m 258.46924,-4.72635 c -1.68881,-0.18496 -3.58281,-0.57806 -4.20888,-0.87351 -0.62608,-0.29546004 -1.3576,-0.54402004 -1.6256,-0.55234004 -0.75255,-0.0235 -3.70806,-1.81102996 -5.94406,-3.59526996 -3.69528,-2.94867 -6.68083,-8.5636603 -7.49205,-14.0904903 -1.23649,-8.42408 1.65458,-15.64104 7.5302,-18.79768 1.95276,-1.0491 2.54964,-1.18219 6.02557,-1.34355 3.07698,-0.14283 4.24719,-0.05 5.77988,0.45848 1.05698,0.35067 2.1385,0.69628 2.40337,0.76804 0.89208,0.24166 0.19222,1.02884 -1.1017,1.23917 -1.35695,0.22056 -3.16179,1.82099 -3.18809,2.82702 -0.008,0.31869 -0.31574,1.14404 -0.68314,1.83411 l -0.66803,1.25469 -3.07866,0.01 c -2.83828,0.009 -3.20066,0.0954 -4.64087,1.10754 -2.20307,1.54828 -3.49502,3.65394 -4.14127,6.74957 -0.76857,3.68151 -0.41159,6.21701 1.35636,9.63346 2.68508,5.1887803 7.43083,8.5292203 13.84644,9.7462003 5.29925,1.00521996 14.96203,0.57897 18.93151,-0.83513 0.86939,-0.30971 1.95348,-0.56311 2.40911,-0.56311 0.45564,0 1.28864,-0.2283 1.85111,-0.50735 0.56249,-0.27904 2.07932,-0.83708 3.37077,-1.2401 3.08942,-0.96408 9.12816,-3.15307 9.98183,-3.61832 0.37116,-0.20228 1.89404,-0.88055 3.38416,-1.5072503 1.49013,-0.62671 3.84723,-1.69795 5.23802,-2.38052 1.39079,-0.68256 3.06833,-1.23686 3.72786,-1.23177 1.02779,0.008 1.18268,0.12288 1.08373,0.80474 -0.0901,0.62064 -1.15284,1.3154 -4.83517,3.1608803 -6.23541,3.125 -8.33969,4.07728 -12.42127,5.62116 -1.87758,0.71022 -3.58446,1.42557 -3.79305,1.58968 -0.2086,0.1641 -1.02389,0.41479 -1.81175,0.55707 -0.78788,0.14228 -1.87708,0.4886 -2.42046,0.7696 -0.54338,0.28097996 -1.42125,0.51088996 -1.95083,0.51088996 -0.52959,0 -1.71622,0.23255 -2.63695,0.51679 -3.26888,1.00912 -5.33757,1.37828004 -9.44081,1.68469004 -2.28486,0.17064 -4.96708,0.38201 -5.9605,0.46975 -0.99342,0.0878 -3.18797,0.008 -4.87678,-0.17679 z M -2.8225285,-0.60898874 c -4.07302,-0.10212 -7.6051005,-0.31505 -7.8490505,-0.47306996 -0.24394,-0.15802 -2.4385,-0.5267 -4.87677,-0.81929 -5.88786,-0.70652 -8.89853,-1.17716 -10.2131,-1.59656 -0.59604,-0.19016 -1.97779,-0.50401 -3.07056,-0.69745 -2.91454,-0.51595 -5.30066,-1.06769 -7.94734,-1.83766 -1.29145,-0.37573 -3.22019,-0.93576 -4.28608,-1.24454 -1.06592,-0.30878 -2.20383,-0.56242 -2.52869,-0.56365 -0.32491,-10e-4 -1.05631,-0.24506 -1.62542,-0.54186 -0.5691,-0.29679 -1.30676,-0.53964 -1.63924,-0.53964 -0.33249,0 -1.98016,-0.47055 -3.66145,-1.04567 -1.6813,-0.5751103 -4.27611,-1.4020503 -5.76623,-1.8376303 -1.49014,-0.43559 -3.22158,-1.02167 -3.84763,-1.30241 -0.62611,-0.28074 -1.35763,-0.51103 -1.6256,-0.51175 -0.268,-7.5e-4 -1.78776,-0.49212 -3.37722,-1.09199 -1.58947,-0.59989 -3.45891,-1.23519 -4.15429,-1.41179 -1.41872,-0.36031 -3.23381,-0.98921 -4.93138,-1.70864 -0.62608,-0.26534 -1.57147,-0.48243 -2.10089,-0.48243 -0.52942,0 -1.31765,-0.19043 -1.75162,-0.42319 -1.23142,-0.66044 -7.06137,-1.73643 -9.43072,-1.74055 -2.48072,-0.004 -7.72362,0.88273 -9.69872,1.64092 -0.74908,0.28755 -1.7465,0.52282 -2.21647,0.52282 -0.46997,0 -1.320121,0.24284 -1.889221,0.53964 -0.56908,0.29681 -1.47215,0.54064 -2.0068,0.54187 -0.53466,0.001 -1.06676,0.15536 -1.18242,0.34253 -0.21709,0.35126 0.48668,0.72065 4.502601,2.36329 1.29143,0.52824 2.80829,1.19267 3.37076,1.4765 0.56249,0.28383 1.3486,0.51606 1.74692,0.51606 0.39833,0 1.72627,0.23912 2.95098,0.53139 5.62135,1.34151 9.13252,1.7377 14.82939,1.67336 3.17786,-0.0359 6.05498,-0.2339 6.44701,-0.44371 1.14819,-0.61448 7.07923,-1.05096 8.08066,-0.59467 1.04523,0.47624 1.07232,0.70239 0.18081,1.5092203 -0.40969,0.37075 -1.53543,0.69607 -2.79963,0.80902 -1.16296,0.1039 -2.72732,0.41901 -3.47641,0.70024 -1.93803,0.72758 -17.66139,0.7283 -20.28084,0.001 -2.54544,-0.70682 -4.80557,-1.27398 -6.67625,-1.6753403 -0.87289,-0.1873 -1.76698,-0.48207 -1.98684,-0.65506 -0.21984,-0.173 -1.40022,-0.65564 -2.623051,-1.07254 -2.30856,-0.78707 -6.56698,-2.78481 -8.84513,-4.14948 -0.72319,-0.43322 -2.25547,-1.34427 -3.40506,-2.02458 -5.07876,-3.00564 -16.77399,-13.17117 -16.77399,-14.58013 0,-0.60975 0.16989,-0.66818 1.31716,-0.45295 0.72444,0.13591 1.70643,0.50216 2.18219,0.81389 0.47576,0.31173 1.46799,0.69718 2.20495,0.85654 2.14481,0.46381 4.46331,1.06316 6.2652,1.61958 2.30506,0.71182 9.67694,0.67421 13.63113,-0.0695 1.71499,-0.32257 5.150161,-1.07227 7.633701,-1.666 6.05819,-1.44829 8.76803,-1.81855 13.90785,-1.90028 5.87072,-0.0934 8.95651,0.34647 14.15614,2.01774 l 4.40256,1.41508 4.62851,-1.46466 c 2.54568,-0.80557 5.11616,-1.63922 5.71223,-1.85256 1.84168,-0.6592 5.96668,-1.40049 9.93417,-1.78524 4.99396,-0.48429 16.82228,-0.10795 18.82591,0.59897 0.82198,0.29001 1.95848,0.5273 2.52553,0.5273 0.56705,0 1.64386,0.2214 2.39298,0.49201 0.74907,0.2706 2.01219,0.66015 2.80692,0.86566 1.50914,0.39024 8.7029905,3.24394 11.1985405,4.4423 5.10120996,2.44961 14.97383,7.97706 16.8497695,9.43378 0.724,0.5622 1.45551,1.02327 1.62559,1.02463 0.17011,0.001 1.60631,0.89542 3.19157,1.98683 1.58533,1.09141 3.01935,1.98438 3.18675,1.98438 0.1674,0 0.27476,-0.36575 0.23856,-0.81279 -0.14214,-1.75491 -0.26183,-1.7159 5.26375,-1.7159 3.84911,0 5.59561,-0.14456 6.54648,-0.54187 1.56975,-0.65588 5.58193,-0.72024 6.20268,-0.0995 0.24329,0.2433 1.2901,0.52778 2.32622,0.63217 2.7948,0.2816 2.72689,1.10474 -0.2067,2.50482 -1.86665,0.89087 -3.05467,1.17004 -6.07181,1.4268 -2.06309,0.17559 -4.64514,0.18953 -5.7379,0.031 -1.09277,-0.15852 -2.84027,-0.30011 -3.88337,-0.31461 -1.04308,-0.0145 -1.89652,-0.16998 -1.89652,-0.34549 0,-0.17553 -0.41282,-0.39805 -0.9174,-0.49451 -1.06853,-0.20427 -1.03226,0.43832 0.0561,0.99426 0.38894,0.19868 0.94508,0.56677 1.23581,0.81799 0.29072,0.25121 1.58524,1.14857 2.87668,1.9941403 1.84533,1.20825 2.34807,1.7292 2.34807,2.43321 0,1.29733 -1.53199,1.40014 -2.83734,0.19042 -0.54609,-0.50613 -1.20416,-0.92023 -1.46239,-0.92023 -0.25817,0 -1.1845,-0.37825 -2.05853,-0.84055 -9.23336,-4.8839903 -10.41066,-5.5404703 -13.8801395,-7.7398403 -0.39254,-0.24881 -1.06365,-0.60455 -1.49139,-0.79051 -0.42772,-0.18595 -0.88437,-0.51068 -1.01474,-0.72161 -0.13039,-0.21095 -0.54092,-0.38354 -0.91238,-0.38354 -0.37144,0 -0.89758,-0.2032 -1.1692,-0.45155 -0.8102,-0.74081 -6.88483,-3.88079 -12.20128,-6.30683 -3.5820405,-1.6346 -5.0855005,-2.21092 -6.9661305,-2.67037 -0.75178,-0.18366 -1.64586,-0.48074 -1.98683,-0.66018 -1.29065,-0.6792 -5.41479,-1.83208 -6.55382,-1.83208 -0.65268,0 -2.18555,-0.27587 -3.40633,-0.61304 -3.05135,-0.84277 -19.41655,-0.83908 -22.99376,0.005 -1.28996,0.30443 -3.07689,0.65185 -3.97096,0.77202 -1.61277,0.21676 -4.69472,1.29533 -4.69207,1.64204 0,0.0993 1.29534,0.82179 2.87685,1.60543 2.61869,1.29757 3.60167,2.14717 3.08365,2.66521 -0.17726,0.17724 -2.64943,-0.70748 -5.47731,-1.96017 -0.6261,-0.27734 -1.4138,-0.50426 -1.75047,-0.50426 -0.33672,0 -1.04363,-0.22343 -1.57102,-0.49652 -1.62291,-0.84041 -4.49552,-1.67516 -6.56855,-1.90876 -1.08701,-0.12248 -2.19631,-0.39672 -2.46513,-0.6094 -0.29022,-0.22962 -3.20126,-0.44777 -7.16688,-0.53707 -5.36102,-0.12074 -7.11707,-0.0351 -8.90357,0.43417 -1.22399,0.32152 -3.11952,0.73895 -4.21227,0.92762 -2.68641,0.46382 -5.33615,1.0669 -6.86361,1.56215 -0.6954,0.22547 -2.158431,0.51975 -3.251181,0.65396 -1.09277,0.13421 -2.96221,0.44327 -4.1543,0.68676 -2.53593,0.51799 -9.59847,0.36895 -10.33504,-0.2181 -0.27623,-0.22017 -1.26624,-0.48196 -2.2,-0.58176 -1.68259,-0.17982 -1.69258,-0.17458 -1.11794,0.58722 0.55108,0.7306 1.42502,1.36037 7.45646,5.37332 3.84219,2.55634 6.73838,3.76927 6.73838,2.82205 0,-0.97063 1.40478,-1.57103 8.127971,-3.47387 3.52787,-0.99849 9.7957,-1.97394 12.67297,-1.97227 2.7772,0.001 7.36124,-1.02547 8.26104,-1.85094 0.18876,-0.17315 0.59515,-0.31582 0.90312,-0.31705 0.30796,-0.001 1.02555,-0.24507 1.59463,-0.54186 1.14961,-0.59956 3.48083,-0.73135 3.48083,-0.19678 0,0.52569 -2.18477,2.04123 -3.7256,2.5844 -1.55504,0.54817 -2.33709,1.28544 -1.84029,1.7349 0.51855,0.46914 2.69138,1.11773 3.74453,1.11773 0.52844,0 1.27634,0.23867 1.662,0.53037 0.38566,0.29171 1.10762,0.53655 1.60433,0.54409 0.4967,0.008 1.33919,0.24124 1.87218,0.51931 0.53301,0.27806 1.50771,0.62389 2.16601,0.76848 0.65833,0.14458 1.68526,0.46907 2.28211,0.72107 0.59684,0.25198 2.06053,0.741 3.25263,1.08669 3.73804,1.08395 5.3068,1.56176 9.21169,2.8056 5.48761,1.74801 7.60309,2.3635 9.03108,2.62757 0.69539,0.12861 1.42691,0.35709 1.62559,0.50776 0.19868,0.15068 1.14694,0.38774 2.10727,0.5268 0.96029,0.13906 2.40313,0.4846903 3.20628,0.7680503 2.94063,1.03751 5.87292,0.28264 3.35627,-0.8640203 -0.4967,-0.22631 -0.90311,-0.59516 -0.90311,-0.81963 0,-0.58122 1.57673,-0.12247 3.28431,0.95544 0.77998,0.4923503 2.27013,1.2228303 3.31148,1.6232603 1.04139,0.40046 2.38111,0.94802 2.97715,1.21683 1.37537,0.62024 4.21369,1.43935 8.12797,2.34566 4.198,0.97199 21.0215805,1.76053 24.81435,1.16308 1.42882,-0.22509 4.35489,-0.41426 6.50237,-0.4204 4.48291,-0.0123 9.02402,-0.52456 9.71054,-1.0943 0.28176,-0.23386 1.09556,-0.29775 2.02841,-0.15924 1.02354,0.15199 2.729,-0.0251 4.97272,-0.51633 1.87817,-0.41123 4.18406,-0.74767 5.12419,-0.74767 0.94011,0 2.16692,-0.18084 2.72623,-0.40187 0.55932,-0.22102 2.36592,-0.54463 4.01472,-0.71915 1.64874,-0.1745 3.30432,-0.48134 3.67895,-0.68186 0.37469,-0.20052 1.3474,-0.36458 2.16157,-0.36458 0.81417,0 2.00841,-0.22066 2.65387,-0.49036 0.64547,-0.26969 2.14395,-0.6104603 3.32991,-0.7572903 1.18599,-0.14682 2.31889,-0.39678 2.51757,-0.55544 0.19868,-0.15868 1.41788,-0.46749 2.70933,-0.68624 1.29143,-0.21877 3.56727,-0.73698 5.05739,-1.15156 1.49013,-0.41461 3.35957,-0.89059 4.15429,-1.05776 0.79473,-0.16716 2.25778,-0.56479 3.25119,-0.88362 4.56365,-1.46467 5.19691,-1.64259 5.84642,-1.64259 0.38065,0 0.87408,-0.182 1.09653,-0.40444 0.22241,-0.22244 1.02708,-0.53161 1.78814,-0.68706 0.76103,-0.15544 1.87138,-0.45931 2.46743,-0.67527 0.59606,-0.21596 5.2925,-1.77945 10.43661,-3.47442 5.144059,-1.69496 9.939549,-3.33592 10.656659,-3.64657 0.71705,-0.31065 1.83764,-0.7951 2.49009,-1.07655 2.31346,-0.99795 2.24551,-1.18425 2.24551,6.15677 v 6.66849 l -1.35467,0.34909 c -1.64112,0.42291 -3.79712,0.81555 -14.178769,2.58214 -1.29145,0.21977 -3.07959,0.6328203 -3.97368,0.9179103 -0.89407,0.28508 -2.45319,0.51754 -3.46471,0.51656 -1.01151,-10e-4 -2.63711,0.24028 -3.61243,0.53616 -0.97532,0.29587 -2.31557,0.53972 -2.97837,0.54186 -0.66277,0.003 -2.20709,0.24177 -3.4318,0.53248 -3.0572,0.72568 -9.18714,1.6804 -12.88341,2.00657 -1.68881,0.14902 -3.51688,0.38854 -4.06235,0.53225 -0.54548,0.14372 -2.74004,0.49046 -4.87679,0.77054 -2.13675,0.28007 -4.77905,0.65532 -5.87182,0.83388 -1.09275,0.17854 -3.17467,0.33835 -4.62651,0.35512 -1.45179,0.0168 -3.32122,0.18762 -4.15429,0.37967 -0.83303,0.19206 -3.95301,0.52146 -6.93326,0.73201 -2.98026,0.21053 -6.63783,0.52558 -8.12797,0.70008 -3.48213,0.40778996 -20.7891495,0.63096996 -30.3443895,0.39129996 z M -324.50926,-1.3308887 c -0.99342,-0.16702 -4.02711,-0.31791 -6.74153,-0.33531 -2.74471,-0.0176 -6.19206,-0.27214 -7.76672,-0.57345 -1.55728,-0.29799 -3.80677,-0.5537 -4.99887,-0.56824 -1.1921,-0.0146 -3.06153,-0.17103 -4.15429,-0.34777 -1.09276,-0.17675 -4.34395,-0.56783 -7.22486,-0.86906 -2.88091,-0.30125 -5.8059,-0.71373 -6.49998,-0.91663 -0.69409,-0.20291 -2.1108,-0.36892 -3.14825,-0.36892 -1.03746,0 -2.58285,-0.22956 -3.4342,-0.5101 -0.85134,-0.28057 -2.76709,-0.61704 -4.25722,-0.74771 -1.49013,-0.13066 -3.88103,-0.4701 -5.3131,-0.75425 -1.43208,-0.28415 -3.33423,-0.51665 -4.22698,-0.51665 -0.89276,0 -2.55936,-0.24384 -3.70356,-0.54186 -1.14419,-0.29802 -2.90613,-0.54187 -3.9154,-0.54187 -1.00927,0 -2.72263,-0.22366 -3.80746,-0.49701 -1.08484,-0.27335 -3.19238,-0.5930303 -4.68345,-0.7103903 -1.49106,-0.11728 -3.19793,-0.37716 -3.79305,-0.57734 -0.59511,-0.20019 -2.30122,-0.53333 -3.79134,-0.74031 -2.49805,-0.34698 -3.83919,-0.55552 -11.55977,-1.79756 -1.49013,-0.23971 -3.68468,-0.65686 -4.87678,-0.92699 -1.1921,-0.27013 -3.12766,-0.59612 -4.30124,-0.7244 -3.29573,-0.36029 -3.10424,-0.0468 -3.10424,-5.08256 0,-4.19068 0.0448,-4.47688 0.70116,-4.47688 0.38565,0 0.79878,-0.15793 0.91808,-0.35096 0.36727,-0.59427 3.46885,-1.81649 4.60963,-1.81649 1.06536,0 4.14654,0.86126 5.46876,1.52863 0.37385,0.1887 1.51176,0.57884 2.52869,0.867 3.25738,0.92298 3.96772,1.15372 6.54514,2.12611 1.39079,0.5247 3.01638,1.08944 3.61243,1.25497 1.45611,0.40438 3.37653,1.07467 4.69616,1.63911 0.59605,0.25495 2.30292,0.82275 3.79304,1.26177 1.49013,0.43904 3.11573,0.96753 3.61243,1.17444 0.49672,0.20692 1.63463,0.49448 2.52871,0.63904 0.89407,0.14458 2.11326,0.42721 2.70932,0.6281 3.99927,1.34783 5.88658,1.8857 6.61642,1.88565 0.46011,-6e-5 1.19162,0.19244 1.6256,0.42774 0.43397,0.2353 1.43928,0.55379 2.23402,0.70776 2.98023,0.5774 5.85421,1.31062 6.52803,1.66545 0.38325,0.20184 1.58762,0.48736 2.67638,0.6345 1.08875,0.14714 2.61286,0.4909703 3.38691,0.7640803 0.77405,0.2731 2.21041,0.49654 3.19191,0.49654 0.9815,0 2.11118,0.17481 2.51039,0.38847 0.39923,0.21365 1.97349,0.53184 3.49838,0.70708 1.52488,0.17524 3.42275,0.47849 4.21748,0.6739 3.55621,0.87435 9.57941,1.81034 11.55977,1.79635 1.1921,-0.008 3.99956,0.25572 6.23879,0.587 5.01353,0.74172 20.32473,0.67723 21.08981,-0.0888 0.24804,-0.24835 0.95242,-0.45155 1.56529,-0.45155 0.61287,0 2.03933,-0.32513 3.16991,-0.72249 1.13058,-0.39736 2.35616,-0.72249 2.72351,-0.72249 0.57602,0 4.01331,-1.34949 7.89394,-3.09917 0.62608,-0.2822903 1.24093,-0.5132503 1.36632,-0.5132503 0.82616,0 8.15202,-5.49711 8.15202,-6.11704 0,-1.08751 -18.75813,-0.30307 -26.1472,1.09342 -2.35806,0.44567 -2.5161,0.4324 -3.07535,-0.25825 -0.71439,-0.88223 -1.58916,-0.70882 -4.19241,0.83106 -0.99342,0.58764 -3.70915,1.99599 -6.03496,3.1297 -2.32581,1.1337 -4.32675,2.2198503 -4.44654,2.4136703 -0.11979,0.19383 -0.5114,0.3524 -0.87025,0.3524 -0.35885,0 -1.04013,0.29475 -1.51396,0.65499 -0.47384,0.36023 -1.639,0.94467 -2.58926,1.29876 -1.37353,0.51177 -1.83642,0.55358 -2.25777,0.20389 -0.79536,-0.66009 -0.64322,-1.25588 0.4634,-1.8148 0.54638,-0.27595 1.88749,-1.07502 2.98025,-1.7757103 1.09276,-0.70067 2.82924,-1.7622 3.85885,-2.35893 1.64662,-0.95433 9.14042,-5.55708 11.47084,-7.04548 0.46663,-0.29803 1.78366,-1.09564 2.92674,-1.77248 1.14307,-0.67685 3.15193,-1.93636 4.46413,-2.79891 1.3122,-0.86256 2.63778,-1.56861 2.94574,-1.56901 0.30796,-3.7e-4 0.71436,-0.15271 0.90311,-0.33846 0.47147,-0.46399 7.31136,-3.99718 7.73812,-3.99718 0.18932,0 1.52897,-0.55877 2.97701,-1.24171 1.44803,-0.68294 3.08137,-1.35119 3.62962,-1.48499 0.54826,-0.1338 1.08617,-0.38783 1.19536,-0.5645 0.10919,-0.17668 0.75221,-0.32123 1.42893,-0.32123 0.67673,0 1.92697,-0.23458 2.77832,-0.52129 3.55916,-1.19865 13.434,-1.77174 17.98445,-1.04374 4.02397,0.64376 7.908,1.57037 8.13724,1.94128 0.0888,0.14372 -0.1732,0.68683 -0.58228,1.20689 -1.0454,1.32902 -0.41298,1.20389 3.60178,-0.71261 1.91048,-0.912 4.69279,-2.05749 6.18292,-2.54555 1.49013,-0.48806 3.1408,-1.12364 3.66816,-1.41239 0.52737,-0.28876 1.22045,-0.52501 1.54019,-0.52501 0.31974,0 0.86361,-0.16137 1.20861,-0.35859 2.95546,-1.68952 12.96469,-3.76848 17.96693,-3.73182 3.56877,0.0262 15.71378,0.85756 16.64606,1.13954 0.61195,0.18507 2.31882,0.45282 3.79305,0.59499 1.47424,0.14216 3.78834,0.48655 5.14244,0.76531 1.3541,0.27876 3.55292,0.50684 4.88625,0.50684 1.33334,0 3.80174,0.17512 5.48534,0.38915 7.09742,0.90229 13.85248,-1.18949 20.95206,-6.48804 2.89056,-2.15728 6.51472,-5.86269 8.78688,-8.98385 l 1.38125,-1.89739 -0.95795,-1.13846 c -2.09319,-2.48762 -4.75991,-9.14238 -4.46545,-11.14348 0.111,-0.75447 0.32717,-0.8396 2.29005,-0.90196 1.24571,-0.0396 2.28033,0.0995 2.43286,0.32694 0.14597,0.21769 0.26789,1.79393 0.27092,3.50276 0.005,3.10752 0.4321,5.14164 1.26693,6.04142 0.35907,0.387 0.55857,0.1283 1.04288,-1.35242 0.32938,-1.00703 0.68768,-2.60413 0.79622,-3.54911 0.40162,-3.49674 0.27818,-3.34375 2.69761,-3.34375 1.67285,0 2.22375,0.13507 2.3975,0.58785 0.325,0.84697 -1.06836,4.90158 -2.9551,8.59919 -1.7578,3.4449 -1.87148,3.8177 -1.16417,3.8177 0.25514,0 1.35241,0.89987 2.43838,1.99971 1.97507,2.00028 4.40693,3.63119 9.24991,6.20335 1.41858,0.75344 3.32339,2.05924 4.23287,2.9018 1.84592,1.71005 3.63219,4.97714 4.02847,7.36801 0.14366,0.86686 0.4237,1.88505 0.62231,2.26265 0.6448,1.22595 -0.85203,8.62233 -2.34668,11.59572 -1.61592,3.21463 -6.62207,8.12796 -8.28149,8.12796 -0.37951,0 -1.19066,0.25891 -1.80259,0.57535 -1.20881,0.6251 -6.99242,0.7691 -8.15993,0.20317 -0.34417,-0.16684 -1.41298,-0.68467 -2.37511,-1.15073 -2.97558,-1.44138 -4.32322,-4.01431 -3.59069,-6.8553 0.39051,-1.51451 1.29455,-1.76741 3.15762,-0.88334 0.86106,0.4086 1.68488,0.52907 2.5317,0.37021 1.35865,-0.25489 1.4837,-0.0729 1.71911,2.50262 0.0871,0.95296 0.29522,1.13587 1.72464,1.51578 1.62061,0.43074 5.60955,0.28391 7.04425,-0.25929 1.17204,-0.44374 4.04117,-3.15169 5.27576,-4.97936 1.84285,-2.72817 2.49095,-5.10896 2.49095,-9.15049 0,-3.84734 -0.5303,-5.80978 -2.07759,-7.68831 -1.26811,-1.53961 -3.9821,-3.52375 -4.24285,-3.10187 -0.12219,0.19772 0.13545,1.34033 0.57258,2.53914 0.66367,1.82018 0.75739,2.62159 0.56822,4.85932 -0.44545,5.26971 -3.44842,10.24687 -6.79365,11.25987 -2.05469,0.62221 -2.46931,0.1125 -1.44047,-1.77094 0.86506,-1.58356 0.90483,-2.65979 0.21829,-5.90614 -0.22861,-1.08103 -0.18499,-1.1309 1.18008,-1.34919 1.80516,-0.28865 2.49347,-1.06597 3.03983,-3.43295 0.67876,-2.94051 -0.38603,-5.48439 -2.98134,-7.12274 -1.38708,-0.87563 -1.67099,-0.9161 -5.49981,-0.78403 -2.75188,0.0949 -4.89982,0.39288 -6.74655,0.93589 -1.49013,0.43814 -3.35472,0.96294 -4.14352,1.1662 -0.78881,0.20326 -1.92671,0.66729 -2.5287,1.03118 -0.60198,0.36388 -1.5009,0.78518 -1.99761,0.93621 -0.49672,0.15104 -2.28486,0.91051 -3.97367,1.68772 -1.68882,0.77721 -3.47696,1.59764 -3.97367,1.82318 -0.49671,0.22554 -2.20358,1.16997 -3.79305,2.09874 -1.58947,0.92876 -4.92194,2.87025 -7.40548,4.31442 -2.48355,1.44417 -5.49089,3.2543 -6.68299,4.02253 -1.1921,0.76822 -3.14282,1.88448 -4.33492,2.4806 -1.1921,0.59611 -3.79305,1.97572 -5.77988,3.0658 -4.50663,2.47258 -6.50409,3.43433 -7.13279,3.43433 -0.26919,0 -0.64387,0.14759 -0.83262,0.32798 -0.18875,0.18038 -1.64365,0.84523 -3.23312,1.47744 -9.74511,3.87613 -14.89231,4.87963 -25.00131,4.87426 -6.36687,-0.003 -7.31468,-0.19957 -6.84737,-1.41738 0.18447,-0.48071 1.07765,-0.56674 5.91817,-0.57005 4.00448,-0.003 6.2286,-0.16399 7.47423,-0.54188 0.97532,-0.29586 2.43835,-0.53527 3.25118,-0.532 3.27231,0.0137 14.59442,-3.76987 21.34623,-7.13244 3.08149,-1.53465 8.50769,-4.42201 9.57293,-5.09387 0.49671,-0.31329 2.20358,-1.24774 3.79305,-2.07657 1.58947,-0.82882 4.35298,-2.41553 6.14113,-3.52603 1.78815,-1.11049 4.10462,-2.46536 5.14771,-3.01081 1.04309,-0.54545 1.89653,-1.11589 1.89653,-1.26765 0,-0.15175 -3.77951,-0.28637 -8.3989,-0.29916 -4.61939,-0.0128 -9.13041,-0.18258 -10.02449,-0.37732 -0.89408,-0.19474 -3.41374,-0.59401 -5.59926,-0.88727 -2.18552,-0.29327 -4.70519,-0.68979 -5.59927,-0.88116 -2.02553,-0.43357 -15.79705,-0.43954 -18.24276,-0.008 -0.99342,0.17532 -2.86285,0.50572 -4.15429,0.73422 -1.29144,0.22851 -2.78704,0.64215 -3.32356,0.91922 -0.53651,0.27706 -1.44016,0.50375 -2.0081,0.50375 -0.56794,0 -1.34817,0.23867 -1.73384,0.53037 -0.38567,0.29171 -1.08254,0.53555 -1.54859,0.54187 -0.46606,0.006 -1.27885,0.23468 -1.80622,0.50746 -1.63061,0.84346 -3.67139,1.67126 -4.13197,1.67606 -0.24162,0.003 -1.41465,0.51197 -2.60676,1.13211 -2.78525,1.44892 -4.34616,2.22127 -6.14112,3.03867 -1.92919,0.87852 -8.0424,4.23214 -11.27334,6.18439 -3.70564,2.23909 -5.61257,2.45404 -5.0089,0.56462 0.21463,-0.67175 4.09191,-2.97462 11.58608,-6.88141 1.78815,-0.93218 3.25118,-1.85744 3.25118,-2.05612 0,-0.32064 -5.29575,-0.83026 -9.93418,-0.95598 -2.8412,-0.077 -9.11658,0.71826 -11.92101,1.51072 -1.49012,0.42107 -3.52211,0.98694 -4.51553,1.25747 -2.11043,0.57473 -4.01345,1.28086 -5.12396,1.90126 -0.43398,0.24246 -0.96838,0.44083 -1.18757,0.44083 -0.44655,0 -7.639,3.31617 -9.04129,4.1686 -0.49671,0.30194 -2.20359,1.21765 -3.79305,2.0349 -2.59431,1.3339 -2.8098,1.52187 -2.10654,1.83758 0.76783,0.34469 3.12118,0.12998 9.33139,-0.85147 2.98635,-0.47196 14.30568,-0.23393 16.97841,0.35702 0.99343,0.21964 3.83821,0.55447 6.32176,0.74407 6.23342,0.47587 11.31965,1.11124 11.6862,1.45984 0.53983,0.51337 -1.18997,1.90127 -2.05635,1.64989 -1.36643,-0.39645 -10.06574,-0.96376 -13.06166,-0.85179 -2.85944,0.1069 -2.89116,0.11865 -3.00501,1.10933 -0.0703,0.61173 -0.49194,1.23977 -1.08373,1.6142 -0.53276,0.33708 -1.78301,1.20385 -2.77831,1.92616 -0.99532,0.72231 -3.10859,2.0013103 -4.69616,2.8422403 -1.58758,0.84092 -3.0897,1.69738 -3.33806,1.90323 -1.2944,1.07286 0.31897,1.34165 2.79964,0.46642 0.84469,-0.29802 2.03824,-0.54187 2.65234,-0.54187 1.03464,0 1.98152,-0.25648 5.29499,-1.43425 0.6954,-0.24718 1.9146,-0.57711 2.70933,-0.73321 0.79473,-0.15608 1.93265,-0.46039 2.5287,-0.67622 0.59605,-0.21584 2.30292,-0.7350903 3.79305,-1.1538803 1.49013,-0.4188 3.22156,-0.99114 3.84764,-1.27188 0.62608,-0.28074 1.46992,-0.51044 1.87521,-0.51044 0.40528,0 0.83362,-0.15654 0.95187,-0.34786 0.11826,-0.19134 0.73744,-0.50357 1.37598,-0.69386 0.63855,-0.19028 2.05506,-0.69809 3.14783,-1.12846 1.09276,-0.43036 2.63707,-0.94002 3.4318,-1.13258 0.79474,-0.19255 1.77009,-0.55973 2.16746,-0.81596 0.39737,-0.25621 1.12888,-0.55892 1.62559,-0.67267 1.14304,-0.26174 3.81045,-1.22322 5.29262,-1.90774 0.62607,-0.28915 1.28642,-0.52573 1.46743,-0.52573 0.18101,0 1.00202,-0.32511 1.82448,-0.72248 0.82245,-0.39736 1.71997,-0.72249 1.99448,-0.72249 0.27451,0 0.61051,-0.11141 0.74668,-0.24757 0.13616,-0.13613 0.77286,-0.44255 1.41487,-0.68084 0.64201,-0.23829 2.79288,-1.03576 4.77972,-1.77215 1.98684,-0.73639 4.3033,-1.49983 5.14771,-1.6965 1.53068,-0.35653 2.10328,-1.01141 0.90311,-1.0329 -4.79529,-0.0858 -8.65667,-0.32716 -10.56636,-0.66038 -1.29144,-0.22534 -3.51766,-0.58597 -4.94715,-0.80139 -2.91884,-0.43987 -3.96045,-1.16916 -2.84,-1.98846 0.7939,-0.58051 4.80071,-0.37719 8.44174,0.42836 1.65525,0.36622 5.08224,0.50448 12.50389,0.50448 5.7759,0 11.07023,0.16744 12.16953,0.38488 1.0702,0.21168 3.29173,0.51449 4.93672,0.67291 3.21303,0.30943 3.71485,0.51012 3.01567,1.206 -0.33307,0.3315 -2.2356,0.41338 -7.43302,0.31993 -5.5167,-0.0992 -7.24035,-0.0156 -8.1981,0.39774 -0.667,0.28787 -2.26936,0.86628 -3.56081,1.28538 -3.62393,1.17604 -5.50018,1.8516 -6.68299,2.40628 -0.59605,0.27952 -1.9778,0.83597 -3.07056,1.23656 -1.09276,0.40059 -3.86167,1.46702 -6.15313,2.36984 -2.29145,0.90282 -4.35091,1.64151 -4.57657,1.64151 -0.22565,0 -0.87049,0.23956 -1.43297,0.53235 -0.56248,0.29281 -1.67293,0.80203 -2.46767,1.13162 -0.79473,0.3296 -2.09521,0.88457 -2.88994,1.23328 -0.79473,0.3487 -1.77009,0.72409 -2.16746,0.83416 -0.39736,0.11004 -3.32343,1.11158 -6.50237,2.22554 -3.17893,1.11395 -6.34884,2.1641203 -7.04423,2.3336903 -0.69539,0.16958 -1.83331,0.50217 -2.5287,0.73908 -2.93848,1.00113 -3.5037,1.16913 -4.90933,1.45922 -0.81262,0.16771 -2.03182,0.53981 -2.70931,0.82689 -1.91844,0.8129 -4.76901,1.49149 -12.16944,2.89698 -1.64466,0.31234 -3.18438,0.68786 -3.4216,0.83447 -1.02125,0.63117 -19.96235,1.33837996 -22.84878,0.85312 z m 163.77014,-45.3848903 c 2.61995,-0.40351 4.16814,-0.807 4.28723,-1.11733 0.16016,-0.41738 -3.16609,-4.38994 -3.97139,-4.74306 -0.2788,-0.12225 -1.08035,0.65098 -4.95852,4.78331 l -1.98684,2.11706 1.26436,-0.2042 c 0.69539,-0.11231 3.10971,-0.48841 5.36516,-0.83578 z m -184.54161,34.19296 c -4.27864,-0.50617 -7.94734,-1.91531 -7.94734,-3.05256 0,-0.56373 0.77083,-0.93343 1.94624,-0.93343 0.44188,0 1.78717,-0.33221 2.98954,-0.73826 l 2.18611,-0.73826 2.6705,0.80711 c 2.01909,0.61025 3.77193,0.8316 7.18603,0.90748 2.48354,0.0552 4.71873,0.10554 4.96708,0.11182 0.24836,0.007 0.45156,0.3357 0.45156,0.73205 0,0.71841 -1.48808,1.58722 -4.23369,2.47184 -1.61757,0.52118 -7.39726,0.76572 -10.21603,0.43227 z m 297.393161,-2.39198 c -0.7381,-0.34202 -0.51369,-1.20588 0.36124,-1.39064 1.05313,-0.22242 3.10105,-0.44987 8.21828,-0.91275 2.28485,-0.20669 4.8858,-0.53035 5.77989,-0.71924 0.89407,-0.1889 5.527,-0.51896 10.29541,-0.73351 4.76841,-0.21454 9.24023,-0.47372 9.9374,-0.57597 0.69716,-0.10226 2.70979,0.0655 4.4725505,0.37298 1.76272,0.30741 4.46701,0.55891 6.00956,0.55891 1.78548,0 3.65584996,0.26294 5.14742,0.72363 2.45262,0.75754 3.36541,1.45006 3.03755,2.30449 -0.24796,0.64612 -3.48852,0.50933 -7.833,-0.33062 -2.63831,-0.51008 -5.00305,-0.56671 -16.7978005,-0.40226 -7.54998,0.10527 -14.62131,0.35058 -15.71406,0.54512 -2.39339,0.42609 -12.27832,0.85462 -12.91444,0.55986 z m -144.772031,-4.57826 c -1.48597,-1.10495 -2.36287,-1.6459 -3.42784,-2.11463 -0.49671,-0.21863 -1.18537,-0.54257 -1.53038,-0.71987 -0.345,-0.1773 -0.91842,-0.32237 -1.27428,-0.32237 -0.75794,0 -2.25274,-0.9724 -2.25274,-1.46546 0,-0.55612 1.86339,-0.38961 3.87723,0.34648 1.93177,0.70608 4.93144,2.83902 6.01902,4.27985 0.81846,1.0843 0.0496,1.08212 -1.41101,-0.004 z"
       id="path898"
       inkscape:connector-curvature="0" />
    <path
       style="fill:#000000;stroke-width:0.26458335"
       d=""
       id="path892"
       inkscape:connector-curvature="0" />
    <path
       style="fill:#000000;stroke-width:0.26458335"
       d=""
       id="path890"
       inkscape:connector-curvature="0" />
    <path
       style="fill:#000000;stroke-width:0.26458335"
       d=""
       id="path888"
       inkscape:connector-curvature="0" />
  </g>
</svg>
