<?xml version="1.0" encoding="UTF-8" standalone="no"?>
<!-- Created with Inkscape (http://www.inkscape.org/) -->

<svg
   xmlns:dc="http://purl.org/dc/elements/1.1/"
   xmlns:cc="http://creativecommons.org/ns#"
   xmlns:rdf="http://www.w3.org/1999/02/22-rdf-syntax-ns#"
   xmlns:svg="http://www.w3.org/2000/svg"
   xmlns="http://www.w3.org/2000/svg"
   xmlns:sodipodi="http://sodipodi.sourceforge.net/DTD/sodipodi-0.dtd"
   xmlns:inkscape="http://www.inkscape.org/namespaces/inkscape"
   width="47.286484mm"
   height="30.652433mm"
   viewBox="0 0 47.286484 30.652433"
   version="1.1"
   id="svg6669"
   inkscape:version="0.92.3 (2405546, 2018-03-11)"
   sodipodi:docname="logo.svg">
  <defs
     id="defs6663" />
  <sodipodi:namedview
     id="base"
     pagecolor="#ffffff"
     bordercolor="#666666"
     borderopacity="1.0"
     inkscape:pageopacity="0.0"
     inkscape:pageshadow="2"
     inkscape:zoom="0.35"
     inkscape:cx="-763.49686"
     inkscape:cy="-344.93129"
     inkscape:document-units="mm"
     inkscape:current-layer="layer1"
     showgrid="false"
     fit-margin-top="0"
     fit-margin-left="0"
     fit-margin-right="0"
     fit-margin-bottom="0"
     inkscape:window-width="1920"
     inkscape:window-height="1050"
     inkscape:window-x="0"
     inkscape:window-y="28"
     inkscape:window-maximized="1" />
  <metadata
     id="metadata6666">
    <rdf:RDF>
      <cc:Work
         rdf:about="">
        <dc:format>image/svg+xml</dc:format>
        <dc:type
           rdf:resource="http://purl.org/dc/dcmitype/StillImage" />
        <dc:title></dc:title>
      </cc:Work>
    </rdf:RDF>
  </metadata>
  <g
     inkscape:label="Layer 1"
     inkscape:groupmode="layer"
     id="layer1"
     transform="translate(-13.398424,-26.917831)">
    <path
       inkscape:connector-curvature="0"
       id="path3708"
       style="fill:#000000;fill-opacity:1;fill-rule:nonzero;stroke:none;stroke-width:0.03527778"
       d="m 30.362555,57.506379 c -0.146085,-0.03457 -0.609247,-0.137935 -1.02803,-0.23001 -1.329937,-0.289632 -2.345549,-1.488369 -2.345549,-2.765777 0,-2.841626 3.002739,-4.171598 6.063509,-2.683229 1.17408,0.569384 1.395942,0.598312 1.761138,0.221898 0.228458,-0.237067 0.459987,-0.760589 0.513856,-1.16452 0.09109,-0.679097 -0.0193,-0.749653 -1.528093,-0.970139 -0.894362,-0.129469 -2.113915,-0.490361 -2.709368,-0.800452 -0.960649,-0.500239 -1.325809,-0.529167 -3.25755,-0.257881 -2.404957,0.337608 -5.993377,-0.09631 -6.395614,-0.774347 -0.228882,-0.385939 -2.59207,-0.770467 -5.366067,-0.873831 -1.263686,-0.04657 -1.706034,-0.199672 -2.147006,-0.744008 -0.670948,-0.828322 -0.690386,-1.271764 -0.108973,-2.399242 0.730603,-1.412522 3.025069,-1.791405 4.295458,-0.708025 0.678003,0.577145 2.112397,-0.242711 3.861117,-2.204861 0.805074,-0.902758 1.46364,-1.486958 1.46364,-1.296811 0,0.188736 -0.432859,0.84455 -0.962025,1.45662 -2.319091,2.680052 -3.618724,3.345744 -4.769097,2.440516 -0.800912,-0.630061 -1.988644,-0.738716 -2.873481,-0.264583 -0.678004,0.362303 -0.760554,1.414992 -0.130775,1.657703 0.244052,0.09349 0.37204,0.283986 0.286738,0.421569 -0.08569,0.139347 -0.352778,0.176389 -0.594042,0.08396 -0.303037,-0.115711 -0.384634,-0.02893 -0.263208,0.286809 0.236996,0.61595 1.008592,0.874888 1.468967,0.491772 0.271639,-0.224367 0.417689,-0.205317 0.518301,0.06914 0.234103,0.640645 0.869526,-0.192969 0.75625,-0.989541 -0.07687,-0.531989 -0.264584,-0.682273 -0.782426,-0.626886 -0.394406,0.04269 -0.604979,-0.05115 -0.500239,-0.221898 0.55245,-0.894291 2.115291,0.126648 1.835538,1.198739 -0.213854,0.814564 0.761929,1.174045 3.143179,1.157817 1.951285,-0.01411 3.760646,-0.521053 4.612287,-1.29152 0.286773,-0.26035 0.631155,-0.472369 0.766198,-0.472369 0.442348,0 -0.857285,1.256594 -2.165032,2.095853 l -1.2827,0.821266 1.401339,0.210961 c 0.771843,0.1143 2.48031,0.105834 3.799381,-0.0194 3.592266,-0.341841 4.054052,-0.301625 4.586111,0.399698 0.320958,0.424391 0.956346,0.694619 1.955448,0.82938 1.297834,0.176389 1.43577,0.14605 1.113296,-0.24518 -0.456107,-0.553862 -0.128023,-0.950737 0.41342,-0.50165 0.974407,0.808919 -0.06629,3.810352 -1.320024,3.810352 -0.270228,0 -1.192001,-0.289278 -2.04791,-0.644878 -1.739195,-0.720725 -2.148346,-0.609247 -1.445683,0.395464 0.260737,0.373592 0.459034,1.147939 0.440972,1.722614 l -0.03419,1.043162 -0.21911,-1.132768 c -0.12125,-0.623007 -0.508635,-1.422047 -0.861412,-1.773413 -0.596548,-0.598311 -0.696031,-0.610659 -1.441415,-0.19297 -2.676278,1.501774 -1.548765,4.568118 1.817758,4.947001 0.913377,0.103365 2.26,-0.07585 4.049924,-0.535868 2.04791,-0.528109 2.800315,-0.614892 3.180644,-0.362657 0.274109,0.180623 0.465632,0.474134 0.424427,0.651934 -0.04272,0.187325 0.36509,0.32385 0.963048,0.32385 1.670403,0 2.838803,-1.631596 1.86443,-2.605969 -0.480835,-0.480835 -0.84596,-0.447675 -0.651579,0.05927 0.08819,0.227541 0.01659,0.50306 -0.158398,0.610658 -0.484011,0.298802 -0.751064,-0.730602 -0.3556,-1.364543 0.250825,-0.40358 0.269875,-1.044575 0.06738,-2.302581 -0.315385,-1.956858 -0.158399,-2.983442 0.454728,-2.983442 0.332317,0 0.343255,0.110067 0.05645,0.569031 -0.482249,0.773289 0.101951,3.906661 0.92216,4.950177 0.692856,0.880533 0.578556,1.975908 -0.300567,2.90054 -0.738717,0.775758 -3.423038,0.871008 -3.297767,0.1143 0.132292,-0.801865 -0.399344,-0.888649 -2.208741,-0.362305 -1.629093,0.472723 -4.74345,0.957792 -5.305425,0.8255 z m 1.511688,-8.70091 c -0.101953,-0.16263 -0.341877,-0.293511 -0.536328,-0.290689 -0.211949,0.0025 -0.174872,0.118534 0.09109,0.290689 0.568995,0.367947 0.670983,0.367947 0.445241,0 z m 12.43397,8.684331 c -1.219552,-0.32385 -1.925108,-1.310571 -1.925108,-2.695575 0,-1.089731 0.16651,-1.477081 0.983898,-2.294467 1.32715,-1.326797 2.739318,-1.565275 5.323417,-0.899583 2.251778,0.579966 3.333395,0.451908 3.611737,-0.425803 0.252235,-0.795161 -0.08819,-1.776236 -0.61595,-1.776236 -0.872419,0 -3.038475,-1.248834 -4.634442,-2.670881 -1.94451,-1.732139 -2.971094,-2.20345 -3.817054,-1.75013 -0.763413,0.408164 -0.633941,1.575152 0.184502,1.674283 0.326673,0.03881 0.425802,-0.0039 0.223308,-0.09631 -0.500239,-0.226131 -0.47131,-0.709789 0.04127,-0.709789 0.657577,0 0.781402,0.788458 0.205317,1.309158 -0.48754,0.442383 -0.58279,0.420511 -1.306335,-0.301625 -0.457555,-0.457553 -0.964496,-0.708378 -1.22908,-0.606425 -0.248002,0.0949 -0.45085,0.04269 -0.45085,-0.1143 0,-0.15875 0.166865,-0.291041 0.370772,-0.296333 0.498826,-0.01235 1.998133,-1.356078 1.998133,-1.788583 0,-0.260703 0.107595,-0.257881 0.430035,0.0095 0.237067,0.19685 0.639585,0.312913 0.895702,0.258938 0.745421,-0.158397 -1.183569,-2.319161 -2.069745,-2.319161 -0.38594,0 -0.785638,0.136525 -0.889,0.303037 -0.103365,0.166863 -0.01905,0.267405 0.187676,0.221897 0.205317,-0.0441 0.425802,0.151694 0.48754,0.437091 0.08008,0.365125 -0.0702,0.517878 -0.509765,0.517878 -0.859718,0 -1.083026,-0.786694 -0.430035,-1.50883 0.464609,-0.513998 0.479777,-0.638175 0.109009,-0.87242 -0.624065,-0.395464 -1.273175,-0.344311 -1.929343,0.151695 -0.32385,0.24518 -0.413456,0.43815 -0.205317,0.443794 0.531988,0.01376 0.458964,0.602192 -0.07302,0.602192 -0.531989,0 -0.589844,-0.921809 -0.08961,-1.422047 0.526697,-0.526698 -1.0541,-0.467431 -2.109682,0.07832 -1.012719,0.523875 -1.310499,1.185334 -0.888965,1.97485 0.264584,0.493183 0.229024,0.573264 -0.223237,0.496006 -0.425803,-0.07161 -0.52504,0.08396 -0.47805,0.748241 0.08393,1.193448 0.635283,1.752953 1.510207,1.532467 0.574781,-0.143228 0.68901,-0.08537 0.548605,0.276931 -0.130916,0.341841 0.0194,0.460375 0.582753,0.460375 0.508776,0 0.808955,-0.195792 0.912319,-0.589845 0.08537,-0.32385 0.27305,-0.515408 0.416278,-0.425803 0.287866,0.1778 0.369358,-0.851605 0.09102,-1.131358 -0.09525,-0.09525 -0.428625,0.08255 -0.741539,0.394053 -0.684671,0.686153 -0.976841,0.708378 -1.570884,0.1143 -0.343288,-0.344311 -0.384633,-0.636411 -0.169368,-1.204384 0.15695,-0.412044 0.293511,-1.106311 0.304411,-1.543402 0.01803,-0.763411 0.02893,-0.768703 0.282611,-0.137584 0.146085,0.360892 0.590903,0.738364 0.989189,0.839259 0.399697,0.09913 1.022702,0.497416 1.386417,0.884414 0.530577,0.56515 0.625475,0.919338 0.482246,1.801283 -0.219075,1.356078 -0.555271,1.580444 -2.375676,1.586089 -1.240366,0.0042 -1.57233,-0.132292 -2.441857,-1.001889 -0.744008,-0.74542 -1.006122,-1.265061 -1.006122,-1.998133 0,-1.419225 0.880851,-2.987675 1.988644,-3.540125 l 0.952112,-0.476956 -0.73025,-0.684741 c -0.968764,-0.910873 -0.971515,-2.188281 -0.0056,-2.822223 0.966293,-0.63253 1.76664,-0.442383 1.893711,0.449086 0.125236,0.880534 -0.741539,1.649589 -1.319071,1.171575 -0.4699,-0.390172 -0.206693,-1.157816 0.396875,-1.157816 0.365195,0 0.380329,0.08149 0.08008,0.443794 -0.212372,0.25647 -0.2413,0.443795 -0.06766,0.443795 0.359798,0 0.691762,-0.756356 0.440973,-1.007181 -0.389855,-0.390172 -1.260899,-0.140758 -1.577728,0.451908 -0.586917,1.096787 0.4699,2.113845 2.651195,2.551995 1.007534,0.202494 2.240844,0.580319 2.739671,0.837847 l 0.90805,0.468489 -0.759177,-1.281289 c -0.4191,-0.704497 -0.946857,-1.402997 -1.175457,-1.550458 -0.474133,-0.30727 -1.383593,-0.04551 -1.383593,0.398286 0,0.16263 0.199673,0.219075 0.443793,0.125236 0.243772,-0.09349 0.443797,-0.02187 0.443797,0.157339 0,0.180269 -0.265997,0.32773 -0.591257,0.32773 -0.899935,0 -0.761999,-1.077383 0.1778,-1.391708 l 0.768656,-0.256446 -1.211085,-1.532114 c -1.349022,-1.707445 -2.118077,-2.229908 -3.078726,-2.093383 -0.65719,0.09525 -1.125714,1.128536 -0.509729,1.128536 0.183409,0 0.257563,-0.123825 0.163971,-0.27552 -0.09384,-0.151694 -0.04822,-0.349955 0.100612,-0.442383 0.307305,-0.190147 0.679521,0.567972 0.409293,0.837847 -0.34865,0.348545 -1.201667,0.168275 -1.378056,-0.2921 -0.299156,-0.77858 -0.213749,-0.974372 0.617361,-1.411111 l 0.798018,-0.417689 -1.229466,-0.626886 c -1.575117,-0.803275 -3.607435,-0.82938 -4.552914,-0.05644 -0.594078,0.485069 -0.636799,0.629708 -0.285398,0.962025 0.293512,0.27693 0.352778,0.282222 0.205317,0.02046 -0.127988,-0.227189 -0.03002,-0.369358 0.252201,-0.369358 0.54296,0 0.596971,0.337608 0.12954,0.805039 -0.467148,0.467077 -1.147621,0.132291 -1.147621,-0.566562 0,-0.874888 -0.625793,-0.497416 -1.287251,0.778581 -0.68199,1.313392 -0.388444,2.141361 0.713987,2.011892 0.637892,-0.07585 0.647382,-0.0508 0.180234,0.467077 -0.272733,0.300567 -0.49597,0.703086 -0.49597,0.893233 0,0.191559 -0.213431,0.347134 -0.475545,0.347134 -0.31115,0 -0.41342,-0.16122 -0.296016,-0.468489 0.09924,-0.257881 -0.01944,-0.752475 -0.264583,-1.101019 -0.355529,-0.508706 -0.443724,-0.537634 -0.443724,-0.143228 0,2.18828 2.700831,4.193116 3.538679,2.627841 0.199672,-0.373591 0.504472,-0.512586 0.898454,-0.409222 0.733143,0.191558 0.763447,0.551039 0.07733,0.950736 -0.69469,0.404989 0.07828,0.417689 0.833579,0.01376 0.383081,-0.205316 0.57478,-0.624416 0.577532,-1.258005 0.0038,-0.704145 0.07691,-0.837847 0.280847,-0.51682 0.434198,0.686153 0.730638,-0.384527 0.319969,-1.152171 -0.182033,-0.33902 -0.242817,-0.61595 -0.135184,-0.61595 0.107632,0 0.02755,-0.201084 -0.175014,-0.446617 -0.232762,-0.279753 -0.763305,-0.415925 -1.423387,-0.365125 -0.864306,0.06632 -1.090154,0.224719 -1.267919,0.889 -0.239924,0.897114 0.01806,1.205794 0.766339,0.918986 0.395358,-0.151342 0.414796,-0.240947 0.100436,-0.440972 -0.282469,-0.179211 -0.206692,-0.250825 0.271357,-0.254706 0.723476,-0.0042 0.878064,0.553861 0.311432,1.120069 -0.768668,0.769056 -2.309601,-0.04657 -2.309601,-1.222022 0,-0.825499 1.101055,-1.678516 2.16916,-1.678516 1.805235,0 2.881489,1.933222 2.105801,3.786716 -0.390137,0.936978 -0.383116,1.0668 0.08929,1.424869 0.465914,0.352778 0.410951,0.395464 -0.517877,0.403931 -0.570477,0.0053 -1.44706,0.126647 -1.94744,0.269875 -1.870004,0.536222 -4.394411,-0.981075 -4.745813,-2.852561 -0.650558,-3.465688 3.111464,-6.662561 6.701402,-5.695244 2.688413,0.723547 4.660476,2.575631 7.988581,7.501819 1.058333,1.567039 1.99108,2.851503 2.073981,2.853972 0.08255,0.0014 0.462844,-0.865364 0.84314,-1.92793 0.667102,-1.857375 0.687562,-2.805642 0.06068,-2.805642 -0.162631,0 -0.219075,0.200025 -0.125235,0.445206 0.108654,0.281163 -0.0042,0.443794 -0.3048,0.443794 -0.58279,0 -0.624065,-0.693208 -0.07021,-1.153583 0.733073,-0.607483 1.369838,-0.06315 1.369838,1.170164 v 1.13665 l 0.898525,-0.312562 c 0.673804,-0.235655 0.855837,-0.446616 0.727427,-0.849136 -0.212018,-0.669572 0.38594,-1.08973 0.632532,-0.443441 0.101951,0.264583 -0.05362,0.734483 -0.349957,1.062214 -0.40781,0.45085 -0.450498,0.668513 -0.183092,0.935919 0.578557,0.579967 0.398286,1.663347 -0.361243,2.160764 -0.85584,0.560916 -1.223788,1.621719 -0.563388,1.621719 0.286456,0 0.382765,-0.167922 0.267055,-0.468489 -0.1143,-0.298802 -0.04551,-0.421569 0.190145,-0.34043 0.237067,0.0829 0.337608,0.563739 0.279755,1.329972 -0.04939,0.660047 0.04974,1.286933 0.221895,1.393119 0.205317,0.127 0.314325,-0.349955 0.314325,-1.37795 0.0013,-1.048808 0.198263,-1.894769 0.592667,-2.542469 1.981554,-3.249436 0.819856,-6.139038 -2.709334,-6.734527 -1.4097,-0.238478 -3.126668,0.303036 -3.366558,1.061155 -0.100542,0.315384 -0.307269,0.574675 -0.458962,0.574675 -0.43533,0 -0.325263,-0.45085 0.308679,-1.255536 l 0.582788,-0.742599 -1.012825,-0.164042 c -1.751189,-0.283986 -2.9337,-1.053041 -3.855473,-2.506838 -0.861554,-1.358548 -1.580903,-1.730728 -1.3837,-0.715081 0.08971,0.457553 0.05514,0.456142 -0.431306,-0.01799 -0.772971,-0.754945 -0.132292,-1.351845 0.933062,-0.866775 0.971515,0.442383 0.934155,0.45085 1.114672,-0.240947 0.235726,-0.898525 1.606972,-1.311981 2.472337,-0.745773 0.910873,0.5969 0.950735,2.013303 0.07303,2.626784 -0.85584,0.60078 -1.499305,0.293511 -1.387828,-0.661459 0.08537,-0.740127 1.125713,-1.34373 1.125713,-0.653344 0,0.174978 -0.210608,0.318205 -0.468487,0.318205 -0.257529,0 -0.413456,0.166864 -0.345723,0.369359 0.17921,0.534811 0.84455,0.45473 1.225198,-0.147461 0.4572,-0.724606 -0.101954,-1.528234 -1.14794,-1.652059 -0.974377,-0.11571 -1.324332,0.323852 -1.329977,1.665818 -0.0067,1.302456 1.095729,2.2987 2.991908,2.7051 2.037998,0.437092 2.115256,0.414867 1.557163,-0.436739 -0.866775,-1.322916 0.378883,-2.954514 1.355725,-1.777647 0.365476,0.439561 0.194378,1.050219 -0.293513,1.050219 -0.147461,0 -0.191559,-0.200024 -0.09772,-0.443794 0.107598,-0.282575 -0.0042,-0.445205 -0.305858,-0.445205 -0.64911,0 -0.620184,1.259416 0.04268,1.853494 0.285398,0.256469 1.05128,0.563739 1.7018,0.684742 1.818923,0.337608 2.96545,0.906991 3.785658,1.882422 0.639234,0.75953 0.800455,0.8255 1.107723,0.45473 0.515409,-0.621241 1.839736,-0.575733 1.715911,0.05927 -0.05257,0.271639 -0.282575,0.556683 -0.51294,0.63253 -0.286454,0.09525 -0.359479,-0.01235 -0.231421,-0.345721 0.224719,-0.585612 -0.185914,-0.639587 -0.6477,-0.0829 -0.37606,0.453672 -0.947914,3.15736 -0.664281,3.14078 0.101955,-0.0056 0.516821,-0.200025 0.924983,-0.432858 0.967317,-0.553861 2.696634,-0.558095 3.421592,-0.0095 0.316794,0.238477 0.415925,0.43815 0.221898,0.443794 -0.192971,0.0053 -0.434271,-0.124178 -0.534813,-0.286808 -0.100541,-0.162631 -0.529166,-0.296334 -0.952145,-0.296334 -0.726371,0 -0.74154,0.03034 -0.278342,0.541867 0.269875,0.297392 0.49036,0.727428 0.49036,0.954969 0,0.246592 -0.184502,0.14852 -0.461433,-0.246944 -0.861483,-1.229078 -2.845858,-0.491772 -3.837869,1.426281 -0.551391,1.066799 -0.597958,1.747308 -0.0829,1.231899 0.674158,-0.673805 0.869595,-0.352777 0.257878,0.424745 -0.337608,0.429683 -0.613127,0.986367 -0.613127,1.238603 0,0.917927 1.193094,2.892777 2.054577,3.40113 l 0.881944,0.521053 -0.321027,-0.92075 c -0.232833,-0.669572 -0.230362,-1.010003 0.01236,-1.252714 0.246592,-0.246592 0.333375,-0.09913 0.333375,0.569383 0,1.379361 0.842079,1.969206 2.464152,1.725084 4.763558,-0.71367 7.358592,-6.321072 5.082117,-10.978797 -2.266949,-4.64117 -10.476086,-10.081708 -16.094074,-10.668731 -2.067277,-0.216252 -2.767187,0.316795 -0.775759,0.589845 2.473325,0.339019 7.474305,3.319639 9.697157,5.780969 1.945568,2.152297 3.785304,5.719939 3.76061,7.291211 -0.0085,0.585611 -0.01376,0.585611 -0.445206,0.01517 -0.239536,-0.317148 -0.370769,-0.782814 -0.290688,-1.036462 0.08008,-0.252236 -0.285398,-1.313391 -0.813154,-2.357966 -1.271762,-2.520245 -3.61456,-4.584701 -5.851171,-5.155143 -1.355725,-0.344311 -1.631598,-0.527755 -1.688041,-1.120422 -0.05927,-0.606072 -0.03563,-0.626886 0.168275,-0.143228 0.14746,0.352778 0.775758,0.701323 1.67146,0.928864 l 1.434396,0.363714 -1.158875,-0.9906 C 47.09163,29.816147 43.936032,28.407859 41.480346,28.099178 39.47551,27.846942 39.17071,27.883984 37.727884,28.54262 c -0.862506,0.395464 -2.174557,0.741539 -2.914261,0.769055 -0.94548,0.03598 -1.463746,0.217664 -1.73923,0.613128 -0.216359,0.308681 -1.088637,0.744361 -1.937526,0.968728 -1.7913,0.471311 -1.599777,0.325261 -2.782253,2.127955 -0.506976,0.772936 -1.32154,1.609372 -1.810879,1.858786 -1.081616,0.553861 -1.32154,0.858661 -1.326797,1.685572 -0.0043,0.493184 0.129399,0.60325 0.587058,0.483659 0.451873,-0.118534 0.592278,-0.0099 0.592278,0.461433 0,1.311981 -2.418326,1.584678 -2.81947,0.318558 -0.253541,-0.797983 0.366571,-2.279297 1.043199,-2.494491 0.29076,-0.09208 0.691903,-0.563386 0.893233,-1.047397 0.367665,-0.888648 2.142843,-2.653947 2.669117,-2.653947 0.156951,0 0.821302,-0.48507 1.478492,-1.077737 0.844867,-0.763411 1.514475,-1.10243 2.294431,-1.160286 0.606495,-0.0441 1.747379,-0.443794 2.535872,-0.885825 0.957757,-0.539044 1.971993,-0.836789 3.061723,-0.898525 0.897114,-0.05256 2.105731,-0.250825 2.68605,-0.443794 2.436284,-0.803275 7.350477,0.38735 11.456811,2.773892 2.569985,1.494013 6.898568,5.627863 7.987241,7.628819 2.1082,3.873852 0.757767,9.128124 -2.816931,10.95128 -0.632177,0.32385 -1.641121,0.688975 -2.240492,0.814564 -0.949325,0.19685 -1.132768,0.377472 -1.418166,1.395941 -0.476602,1.697567 -1.463321,2.184048 -3.330573,1.641123 -0.782815,-0.227189 -2.054579,-0.4699 -2.826456,-0.538692 l -1.402644,-0.124178 0.43956,1.0541 c 0.242359,0.58032 0.432507,1.29293 0.420159,1.583619 -0.01093,0.289277 -0.214842,-0.0028 -0.451909,-0.650523 -0.237066,-0.646287 -0.547158,-1.292576 -0.688975,-1.434393 -0.443793,-0.443794 -1.518708,0.107244 -2.113843,1.084439 -0.732015,1.20015 -0.727782,2.331509 0.01236,3.001434 0.84455,0.76482 4.132792,0.923218 6.224413,0.298802 2.607379,-0.778582 3.390193,-0.84455 3.826931,-0.318207 0.563739,0.67804 2.293056,0.611717 2.676173,-0.101952 0.428625,-0.800806 0.381706,-1.204383 -0.137936,-1.204383 -0.476604,0 -0.603604,-0.458965 -0.19685,-0.70979 0.136171,-0.08396 0.187325,-0.886177 0.112888,-1.780468 -0.139346,-1.671461 0.07585,-3.136194 0.460375,-3.132314 0.331964,0.0028 0.256116,7.026628 -0.08008,7.358945 -0.453321,0.444852 -3.192992,0.530577 -3.334809,0.103362 -0.155575,-0.466018 -0.824089,-0.448027 -2.290233,0.05927 -1.304925,0.451908 -5.284965,0.815623 -6.217708,0.567621 z m 5.211585,-10.02665 c -0.505528,-0.576086 -0.918985,-1.163109 -0.918985,-1.304925 0,-0.141817 -0.2921,-0.182034 -0.64911,-0.08819 -0.605015,0.158398 -0.56233,0.246592 0.631118,1.304925 1.604082,1.423459 2.155119,1.476022 0.936977,0.08819 z M 47.41689,44.193253 c 0,-0.195792 -0.232833,-0.33655 -0.517877,-0.312914 -0.402518,0.03175 -0.50165,-0.158398 -0.443793,-0.847373 0.04127,-0.489302 0.08678,-1.288697 0.103362,-1.776588 0.01659,-0.508353 0.0882,-0.66675 0.169333,-0.370417 0.172156,0.636411 0.941213,0.681919 1.175456,0.0702 0.217665,-0.567972 -0.399698,-1.328561 -1.078793,-1.328561 -1.4224,0 -1.933575,2.812697 -0.858663,4.726869 0.628298,1.116189 0.727781,1.182158 1.072092,0.712258 0.208139,-0.285044 0.378883,-0.678039 0.378883,-0.873477 z M 38.53571,44.0913 c 0,-0.151695 0.232834,-0.33655 0.516467,-0.410986 0.319969,-0.08255 0.205317,-0.14852 -0.294922,-0.169334 -0.541549,-0.02328 -0.814247,0.1143 -0.814247,0.409223 0,0.24518 0.133809,0.445205 0.296404,0.445205 0.162596,0 0.296298,-0.124178 0.296298,-0.274108 z M 25.803996,37.731422 c 0,-0.281164 -0.20821,-0.362303 -0.638175,-0.249414 -0.580002,0.151695 -0.62163,0.08008 -0.451979,-0.767644 0.103329,-0.515408 0.121391,-0.935567 0.03997,-0.935567 -0.290795,0 -0.705556,1.484136 -0.537316,1.922286 0.217593,0.567973 1.5875,0.594078 1.5875,0.03034 z m 0.534423,-3.588455 c -0.0907,-0.09066 -0.256046,0.07303 -0.367947,0.365125 -0.159844,0.421922 -0.125272,0.456141 0.166863,0.165453 0.20246,-0.201084 0.293547,-0.439562 0.201084,-0.530578 z M 28.1439,32.653539 c 0.341489,-0.580319 0.501333,-0.981428 0.355283,-0.890411 -0.147461,0.09102 -0.546806,0.639586 -0.888718,1.219553 -0.343112,0.580319 -0.502991,0.981427 -0.356905,0.890411 0.147461,-0.09102 0.547088,-0.639586 0.89034,-1.219553 z m 4.025265,-2.796117 c 0.100436,-0.16263 0.04932,-0.296333 -0.113277,-0.296333 -0.16263,0 -0.377437,0.133703 -0.478049,0.296333 -0.100471,0.162631 -0.04974,0.296334 0.112854,0.296334 0.162771,0 0.37786,-0.133703 0.478472,-0.296334 z m 4.441402,-1.321505 c 1.145152,-0.524933 0.321098,-0.5334 -1.036426,-0.01094 -0.672324,0.258939 -0.828322,0.402167 -0.443865,0.409222 0.325367,0.0039 0.99247,-0.173567 1.480291,-0.398286 z m 15.895496,17.002124 c -0.636765,-0.592666 -0.90664,-2.061633 -0.380296,-2.061633 0.147463,0 0.20814,0.233186 0.133704,0.518231 -0.237066,0.913694 0.602192,1.677105 1.805163,1.642533 1.299633,-0.03704 1.684162,-0.319617 0.972962,-0.716492 -0.282575,-0.159808 -0.515408,-0.442383 -0.515408,-0.629708 0,-0.248003 0.09631,-0.243769 0.3556,0.01517 0.195437,0.19438 0.724604,0.354188 1.176867,0.354188 1.090083,0 1.809395,-1.374069 1.809395,-3.456163 0,-1.988609 -1.095727,-4.271786 -3.106208,-6.471355 -1.867252,-2.043642 -1.719792,-2.404534 0.20814,-0.508353 3.865385,3.803297 4.34481,9.812866 0.913693,11.441641 -1.3589,0.643819 -2.595033,0.5969 -3.373612,-0.128059 z M 24.713842,43.360697 c 0.46041,-1.195917 0.515373,-1.872544 0.217734,-2.653947 -0.282645,-0.74295 -0.257563,-0.804686 0.25781,-0.642408 1.081617,0.343252 3.090687,1.514475 3.209325,1.871486 0.06876,0.203905 -0.152823,0.357011 -0.518301,0.357011 -0.351366,0 -1.252361,0.35948 -2.004906,0.800452 -1.135486,0.665692 -1.331313,0.7112 -1.161662,0.267406 z m 1.292578,-1.715558 c -0.09521,-0.237067 -0.165347,-0.166864 -0.179141,0.179211 -0.01238,0.311503 0.05789,0.48648 0.155857,0.388408 0.09772,-0.09913 0.108727,-0.354189 0.02328,-0.567619 z m 1.573741,0.202494 c 0,-0.04551 -0.199954,-0.161219 -0.443723,-0.254705 -0.267477,-0.102306 -0.443865,-0.0014 -0.443865,0.254705 0,0.257881 0.176388,0.358422 0.443865,0.25647 0.243769,-0.09384 0.443723,-0.20955 0.443723,-0.25647 z" />
  </g>
</svg>
